<?xml version="1.0"?>
<!DOCTYPE svg PUBLIC "-//W3C//DTD SVG 1.1//EN"
  "http://www.w3.org/Graphics/SVG/1.1/DTD/svg11.dtd">

<svg x="0px" y="0px" width="64px" height="64px"
	viewBox="0 0 64 64"
	xmlns="http://www.w3.org/2000/svg" 
	xmlns:xlink="http://www.w3.org/1999/xlink">

<defs>
<symbol id="kba-icon-altdispute" >
<title>altdispute</title>
<path class="path1" d="M8.164 50.244l-8.028-1.193c0 0-0.821-21.144 1.561-21.555 0 0 6.677 1.396 7.652 3.256l-1.185 19.492z"></path>
<path class="path2" d="M11.608 49.043l6.283 2.564c0.748 2.659 4.357 1.513 4.357 1.513 0.164 2.163 4.987 1.251 4.987 1.251 0.48 2.028 5.485 0.667 5.485 0.667 0.797 1.896 5.987 0.085 5.987 0.085 1.427 1.629 6.001-2.524 6.001-2.524 7.415-5.352 11.284-24.452 11.284-24.452l-10.023-8.801c-9.029 4.172-9.859 0.429-18.548 4.083-7.459 3.139-13.572 8.444-15.16 9.888 0.633 0.811 1.761 1.803 3.492 1.713 3.083-0.16 7.812-2.915 10.709-4.877 2.893-1.959 7.78-0.669 10.657-0.017 2.875 0.648 11.052 2.416 12.299 4.493 1.249 2.079 3.004 3.709 0.016 4.455 0 0 2.144 2.445-1.097 2.693 0 0 1.644 3.028-2.043 3.089 0 0 2.163 3.559-2.845 3.597 0 0 0.131 3.348-5.595 2.484l-2.369-5.629c0 0-1.776-2.736-3.628-0.844 0 0-3.184-3.261-4.763 0.609 0 0-3.644-2.369-4.967 1.113 0 0-2.576-3.1-4.155 1.747 0 0-1.376 0.024-2.083-0.656 0 0-2.28-2.109-4.147-0.904l-0.136 2.66z"></path>
<path class="path3" d="M60.517 29.013c0 0-13.020-11.593-13.967-12.496-0.944-0.904 2.251-7.992 3.471-8.411 1.221-0.42 14.164 12.732 13.976 15.395-0.093 1.348-3.48 5.512-3.48 5.512z"></path>
</symbol>
</defs>

<script xmlns="http://www.w3.org/2000/svg">document.getElementById(location.hash.substring(1)).getElementsByTagName('path')[0].setAttribute('fill', '#333');</script>

</svg>